<mxfile host="app.diagrams.net" modified="2024-01-11T23:51:09.721Z" agent="Mozilla/5.0 (Windows NT 10.0; Win64; x64) AppleWebKit/537.36 (KHTML, like Gecko) Chrome/120.0.0.0 Safari/537.36" etag="Js5YqtlObQyZSwfGudxH" version="22.1.18" type="github">
  <diagram name="Halaman-1" id="I5R9IB_ubXEkLobNHyfv">
    <mxGraphModel dx="2227" dy="759" grid="1" gridSize="10" guides="1" tooltips="1" connect="1" arrows="1" fold="1" page="1" pageScale="1" pageWidth="827" pageHeight="1169" math="0" shadow="0">
      <root>
        <mxCell id="0" />
        <mxCell id="1" parent="0" />
        <mxCell id="lkRLUyl65WBtxDftpdHH-55" style="edgeStyle=orthogonalEdgeStyle;rounded=0;orthogonalLoop=1;jettySize=auto;html=1;exitX=1;exitY=0.75;exitDx=0;exitDy=0;" edge="1" parent="1" source="lkRLUyl65WBtxDftpdHH-45" target="lkRLUyl65WBtxDftpdHH-1">
          <mxGeometry relative="1" as="geometry">
            <Array as="points">
              <mxPoint x="350" y="488" />
              <mxPoint x="350" y="560" />
            </Array>
          </mxGeometry>
        </mxCell>
        <mxCell id="lkRLUyl65WBtxDftpdHH-56" value="Status Kehadiran" style="edgeLabel;html=1;align=center;verticalAlign=middle;resizable=0;points=[];" vertex="1" connectable="0" parent="lkRLUyl65WBtxDftpdHH-55">
          <mxGeometry x="-0.354" relative="1" as="geometry">
            <mxPoint x="-2" as="offset" />
          </mxGeometry>
        </mxCell>
        <mxCell id="lkRLUyl65WBtxDftpdHH-45" value="Validasi Lokasi&lt;br&gt;Jika true&amp;nbsp;" style="rounded=1;whiteSpace=wrap;html=1;absoluteArcSize=1;arcSize=14;strokeWidth=2;" vertex="1" parent="1">
          <mxGeometry x="180" y="450" width="70" height="50" as="geometry" />
        </mxCell>
        <mxCell id="lkRLUyl65WBtxDftpdHH-8" style="edgeStyle=orthogonalEdgeStyle;rounded=0;orthogonalLoop=1;jettySize=auto;html=1;exitX=0.401;exitY=0.008;exitDx=0;exitDy=0;entryX=1;entryY=0.75;entryDx=0;entryDy=0;exitPerimeter=0;" edge="1" parent="1" source="lkRLUyl65WBtxDftpdHH-1" target="lkRLUyl65WBtxDftpdHH-3">
          <mxGeometry relative="1" as="geometry">
            <Array as="points">
              <mxPoint x="450" y="340" />
            </Array>
          </mxGeometry>
        </mxCell>
        <mxCell id="lkRLUyl65WBtxDftpdHH-12" value="&lt;font style=&quot;font-size: 15px;&quot;&gt;Response Data&amp;nbsp; Siswa&lt;/font&gt;" style="edgeLabel;html=1;align=center;verticalAlign=middle;resizable=0;points=[];" vertex="1" connectable="0" parent="lkRLUyl65WBtxDftpdHH-8">
          <mxGeometry x="0.051" y="1" relative="1" as="geometry">
            <mxPoint x="-26" as="offset" />
          </mxGeometry>
        </mxCell>
        <mxCell id="lkRLUyl65WBtxDftpdHH-10" style="edgeStyle=orthogonalEdgeStyle;rounded=0;orthogonalLoop=1;jettySize=auto;html=1;entryX=1;entryY=0.25;entryDx=0;entryDy=0;" edge="1" parent="1" source="lkRLUyl65WBtxDftpdHH-1" target="lkRLUyl65WBtxDftpdHH-4">
          <mxGeometry relative="1" as="geometry">
            <Array as="points">
              <mxPoint x="411" y="720" />
            </Array>
          </mxGeometry>
        </mxCell>
        <mxCell id="lkRLUyl65WBtxDftpdHH-13" value="&lt;font style=&quot;font-size: 15px;&quot;&gt;Response Data Guru&lt;/font&gt;" style="edgeLabel;html=1;align=center;verticalAlign=middle;resizable=0;points=[];" vertex="1" connectable="0" parent="lkRLUyl65WBtxDftpdHH-10">
          <mxGeometry x="0.2512" relative="1" as="geometry">
            <mxPoint as="offset" />
          </mxGeometry>
        </mxCell>
        <mxCell id="lkRLUyl65WBtxDftpdHH-17" style="edgeStyle=orthogonalEdgeStyle;rounded=0;orthogonalLoop=1;jettySize=auto;html=1;" edge="1" parent="1" source="lkRLUyl65WBtxDftpdHH-1" target="lkRLUyl65WBtxDftpdHH-4">
          <mxGeometry relative="1" as="geometry">
            <Array as="points">
              <mxPoint x="90" y="590" />
            </Array>
          </mxGeometry>
        </mxCell>
        <mxCell id="lkRLUyl65WBtxDftpdHH-18" value="&lt;font style=&quot;font-size: 15px;&quot;&gt;Response Kode Absen&lt;/font&gt;" style="edgeLabel;html=1;align=center;verticalAlign=middle;resizable=0;points=[];" vertex="1" connectable="0" parent="lkRLUyl65WBtxDftpdHH-17">
          <mxGeometry x="-0.4196" y="-1" relative="1" as="geometry">
            <mxPoint as="offset" />
          </mxGeometry>
        </mxCell>
        <mxCell id="lkRLUyl65WBtxDftpdHH-25" style="edgeStyle=orthogonalEdgeStyle;rounded=0;orthogonalLoop=1;jettySize=auto;html=1;entryX=0;entryY=0.5;entryDx=0;entryDy=0;" edge="1" parent="1" source="lkRLUyl65WBtxDftpdHH-1" target="lkRLUyl65WBtxDftpdHH-5">
          <mxGeometry relative="1" as="geometry">
            <Array as="points">
              <mxPoint x="500" y="320" />
            </Array>
          </mxGeometry>
        </mxCell>
        <mxCell id="lkRLUyl65WBtxDftpdHH-26" value="&lt;font style=&quot;font-size: 13px;&quot;&gt;Response&amp;nbsp;&lt;/font&gt;Data Guru/Siswa/Kehadiran/Mapel/Jadwal" style="edgeLabel;html=1;align=center;verticalAlign=middle;resizable=0;points=[];" vertex="1" connectable="0" parent="lkRLUyl65WBtxDftpdHH-25">
          <mxGeometry x="0.1659" y="-1" relative="1" as="geometry">
            <mxPoint x="20" y="-1" as="offset" />
          </mxGeometry>
        </mxCell>
        <mxCell id="lkRLUyl65WBtxDftpdHH-31" style="edgeStyle=orthogonalEdgeStyle;rounded=0;orthogonalLoop=1;jettySize=auto;html=1;entryX=0;entryY=0.25;entryDx=0;entryDy=0;" edge="1" parent="1" source="lkRLUyl65WBtxDftpdHH-1" target="lkRLUyl65WBtxDftpdHH-6">
          <mxGeometry relative="1" as="geometry">
            <Array as="points">
              <mxPoint x="500" y="720" />
            </Array>
          </mxGeometry>
        </mxCell>
        <mxCell id="lkRLUyl65WBtxDftpdHH-32" value="Get Data Guru/Siswa/Kehadiran/Mapel/Jadwal" style="edgeLabel;html=1;align=center;verticalAlign=middle;resizable=0;points=[];" vertex="1" connectable="0" parent="lkRLUyl65WBtxDftpdHH-31">
          <mxGeometry x="0.1212" y="1" relative="1" as="geometry">
            <mxPoint as="offset" />
          </mxGeometry>
        </mxCell>
        <mxCell id="lkRLUyl65WBtxDftpdHH-66" style="edgeStyle=orthogonalEdgeStyle;rounded=0;orthogonalLoop=1;jettySize=auto;html=1;entryX=0.5;entryY=1;entryDx=0;entryDy=0;" edge="1" parent="1" source="lkRLUyl65WBtxDftpdHH-1" target="lkRLUyl65WBtxDftpdHH-5">
          <mxGeometry relative="1" as="geometry">
            <Array as="points">
              <mxPoint x="560" y="430" />
              <mxPoint x="900" y="430" />
            </Array>
          </mxGeometry>
        </mxCell>
        <mxCell id="lkRLUyl65WBtxDftpdHH-67" value="get All Data" style="edgeLabel;html=1;align=center;verticalAlign=middle;resizable=0;points=[];" vertex="1" connectable="0" parent="lkRLUyl65WBtxDftpdHH-66">
          <mxGeometry x="-0.1974" y="-2" relative="1" as="geometry">
            <mxPoint x="17" as="offset" />
          </mxGeometry>
        </mxCell>
        <mxCell id="lkRLUyl65WBtxDftpdHH-1" value="&lt;p style=&quot;text-indent: 0cm; line-height: normal;&quot; align=&quot;center&quot; class=&quot;MsoNormal&quot;&gt;&lt;b&gt;SISTEM ABSENSI SISWA&amp;nbsp; DENGAN GLOBAL POSITONING SYSTEM (GPS)&amp;nbsp;&lt;/b&gt;&lt;/p&gt;" style="ellipse;whiteSpace=wrap;html=1;aspect=fixed;" vertex="1" parent="1">
          <mxGeometry x="370" y="460" width="200" height="200" as="geometry" />
        </mxCell>
        <mxCell id="lkRLUyl65WBtxDftpdHH-7" style="edgeStyle=orthogonalEdgeStyle;rounded=0;orthogonalLoop=1;jettySize=auto;html=1;entryX=0.5;entryY=0;entryDx=0;entryDy=0;" edge="1" parent="1" source="lkRLUyl65WBtxDftpdHH-3" target="lkRLUyl65WBtxDftpdHH-1">
          <mxGeometry relative="1" as="geometry" />
        </mxCell>
        <mxCell id="lkRLUyl65WBtxDftpdHH-11" value="&lt;font style=&quot;font-size: 15px;&quot;&gt;Get Data&amp;nbsp; Siswa&lt;/font&gt;" style="edgeLabel;html=1;align=center;verticalAlign=middle;resizable=0;points=[];" vertex="1" connectable="0" parent="lkRLUyl65WBtxDftpdHH-7">
          <mxGeometry x="-0.2649" y="2" relative="1" as="geometry">
            <mxPoint as="offset" />
          </mxGeometry>
        </mxCell>
        <mxCell id="lkRLUyl65WBtxDftpdHH-19" style="edgeStyle=orthogonalEdgeStyle;rounded=0;orthogonalLoop=1;jettySize=auto;html=1;" edge="1" parent="1" source="lkRLUyl65WBtxDftpdHH-3">
          <mxGeometry relative="1" as="geometry">
            <mxPoint x="180" y="490" as="targetPoint" />
            <Array as="points">
              <mxPoint x="70" y="489" />
            </Array>
          </mxGeometry>
        </mxCell>
        <mxCell id="lkRLUyl65WBtxDftpdHH-20" value="&lt;font style=&quot;font-size: 11px;&quot;&gt;Post status kehadiran&amp;nbsp;&lt;/font&gt;" style="edgeLabel;html=1;align=center;verticalAlign=middle;resizable=0;points=[];rotation=-90;" vertex="1" connectable="0" parent="lkRLUyl65WBtxDftpdHH-19">
          <mxGeometry x="0.0846" y="-3" relative="1" as="geometry">
            <mxPoint x="-1" y="-62" as="offset" />
          </mxGeometry>
        </mxCell>
        <mxCell id="lkRLUyl65WBtxDftpdHH-3" value="&lt;font style=&quot;font-size: 24px;&quot;&gt;Siswa&lt;/font&gt;" style="rounded=0;whiteSpace=wrap;html=1;" vertex="1" parent="1">
          <mxGeometry x="-20" y="280" width="180" height="80" as="geometry" />
        </mxCell>
        <mxCell id="lkRLUyl65WBtxDftpdHH-4" value="&lt;font style=&quot;font-size: 24px;&quot;&gt;Guru&lt;/font&gt;" style="rounded=0;whiteSpace=wrap;html=1;" vertex="1" parent="1">
          <mxGeometry x="-30" y="700" width="180" height="80" as="geometry" />
        </mxCell>
        <mxCell id="lkRLUyl65WBtxDftpdHH-37" style="edgeStyle=orthogonalEdgeStyle;rounded=0;orthogonalLoop=1;jettySize=auto;html=1;entryX=1;entryY=0;entryDx=0;entryDy=0;" edge="1" parent="1" source="lkRLUyl65WBtxDftpdHH-5" target="lkRLUyl65WBtxDftpdHH-1">
          <mxGeometry relative="1" as="geometry">
            <Array as="points">
              <mxPoint x="880" y="410" />
              <mxPoint x="541" y="410" />
            </Array>
          </mxGeometry>
        </mxCell>
        <mxCell id="lkRLUyl65WBtxDftpdHH-38" value="Post All Data" style="edgeLabel;html=1;align=center;verticalAlign=middle;resizable=0;points=[];" vertex="1" connectable="0" parent="lkRLUyl65WBtxDftpdHH-37">
          <mxGeometry x="0.0244" y="2" relative="1" as="geometry">
            <mxPoint as="offset" />
          </mxGeometry>
        </mxCell>
        <mxCell id="lkRLUyl65WBtxDftpdHH-5" value="&lt;font style=&quot;font-size: 24px;&quot;&gt;Admin&lt;/font&gt;" style="rounded=0;whiteSpace=wrap;html=1;" vertex="1" parent="1">
          <mxGeometry x="810" y="280" width="180" height="80" as="geometry" />
        </mxCell>
        <mxCell id="lkRLUyl65WBtxDftpdHH-70" style="edgeStyle=orthogonalEdgeStyle;rounded=0;orthogonalLoop=1;jettySize=auto;html=1;entryX=1;entryY=1;entryDx=0;entryDy=0;" edge="1" parent="1" source="lkRLUyl65WBtxDftpdHH-6" target="lkRLUyl65WBtxDftpdHH-1">
          <mxGeometry relative="1" as="geometry">
            <Array as="points">
              <mxPoint x="900" y="680" />
              <mxPoint x="541" y="680" />
            </Array>
          </mxGeometry>
        </mxCell>
        <mxCell id="lkRLUyl65WBtxDftpdHH-71" value="Response All data" style="edgeLabel;html=1;align=center;verticalAlign=middle;resizable=0;points=[];" vertex="1" connectable="0" parent="lkRLUyl65WBtxDftpdHH-70">
          <mxGeometry x="0.1383" y="1" relative="1" as="geometry">
            <mxPoint as="offset" />
          </mxGeometry>
        </mxCell>
        <mxCell id="lkRLUyl65WBtxDftpdHH-6" value="&lt;font style=&quot;font-size: 24px;&quot;&gt;Database&lt;/font&gt;" style="rounded=0;whiteSpace=wrap;html=1;strokeWidth=2;shape=mxgraph.flowchart.database;" vertex="1" parent="1">
          <mxGeometry x="810" y="700" width="180" height="80" as="geometry" />
        </mxCell>
        <mxCell id="lkRLUyl65WBtxDftpdHH-9" style="edgeStyle=orthogonalEdgeStyle;rounded=0;orthogonalLoop=1;jettySize=auto;html=1;entryX=0.333;entryY=0.983;entryDx=0;entryDy=0;entryPerimeter=0;" edge="1" parent="1" source="lkRLUyl65WBtxDftpdHH-4" target="lkRLUyl65WBtxDftpdHH-1">
          <mxGeometry relative="1" as="geometry" />
        </mxCell>
        <mxCell id="lkRLUyl65WBtxDftpdHH-14" value="&lt;font style=&quot;font-size: 15px;&quot;&gt;Get Data Guru&lt;/font&gt;" style="edgeLabel;html=1;align=center;verticalAlign=middle;resizable=0;points=[];" vertex="1" connectable="0" parent="lkRLUyl65WBtxDftpdHH-9">
          <mxGeometry x="-0.1924" relative="1" as="geometry">
            <mxPoint as="offset" />
          </mxGeometry>
        </mxCell>
        <mxCell id="lkRLUyl65WBtxDftpdHH-15" style="edgeStyle=orthogonalEdgeStyle;rounded=0;orthogonalLoop=1;jettySize=auto;html=1;" edge="1" parent="1" source="lkRLUyl65WBtxDftpdHH-4" target="lkRLUyl65WBtxDftpdHH-1">
          <mxGeometry relative="1" as="geometry">
            <Array as="points">
              <mxPoint x="110" y="610" />
            </Array>
          </mxGeometry>
        </mxCell>
        <mxCell id="lkRLUyl65WBtxDftpdHH-16" value="&lt;font style=&quot;font-size: 15px;&quot;&gt;Post Data&amp;nbsp; Jadwal Mapel&lt;/font&gt;" style="edgeLabel;html=1;align=center;verticalAlign=middle;resizable=0;points=[];" vertex="1" connectable="0" parent="lkRLUyl65WBtxDftpdHH-15">
          <mxGeometry x="0.0699" y="-1" relative="1" as="geometry">
            <mxPoint as="offset" />
          </mxGeometry>
        </mxCell>
        <mxCell id="lkRLUyl65WBtxDftpdHH-21" style="edgeStyle=orthogonalEdgeStyle;rounded=0;orthogonalLoop=1;jettySize=auto;html=1;entryX=0.63;entryY=1.058;entryDx=0;entryDy=0;entryPerimeter=0;" edge="1" parent="1" source="lkRLUyl65WBtxDftpdHH-45" target="lkRLUyl65WBtxDftpdHH-3">
          <mxGeometry relative="1" as="geometry">
            <Array as="points" />
          </mxGeometry>
        </mxCell>
        <mxCell id="lkRLUyl65WBtxDftpdHH-23" style="edgeStyle=orthogonalEdgeStyle;rounded=0;orthogonalLoop=1;jettySize=auto;html=1;entryX=0.543;entryY=-0.053;entryDx=0;entryDy=0;entryPerimeter=0;" edge="1" parent="1" source="lkRLUyl65WBtxDftpdHH-1" target="lkRLUyl65WBtxDftpdHH-4">
          <mxGeometry relative="1" as="geometry">
            <Array as="points">
              <mxPoint x="68" y="570" />
            </Array>
          </mxGeometry>
        </mxCell>
        <mxCell id="lkRLUyl65WBtxDftpdHH-24" value="&lt;font style=&quot;font-size: 15px;&quot;&gt;Rekap Kehadiran Siswa&lt;/font&gt;" style="edgeLabel;html=1;align=center;verticalAlign=middle;resizable=0;points=[];" vertex="1" connectable="0" parent="lkRLUyl65WBtxDftpdHH-23">
          <mxGeometry x="-0.2155" y="2" relative="1" as="geometry">
            <mxPoint y="-4" as="offset" />
          </mxGeometry>
        </mxCell>
        <mxCell id="lkRLUyl65WBtxDftpdHH-27" style="edgeStyle=orthogonalEdgeStyle;rounded=0;orthogonalLoop=1;jettySize=auto;html=1;exitX=0;exitY=0.75;exitDx=0;exitDy=0;entryX=0.749;entryY=0.067;entryDx=0;entryDy=0;entryPerimeter=0;" edge="1" parent="1" source="lkRLUyl65WBtxDftpdHH-5" target="lkRLUyl65WBtxDftpdHH-1">
          <mxGeometry relative="1" as="geometry" />
        </mxCell>
        <mxCell id="lkRLUyl65WBtxDftpdHH-28" value="&lt;font style=&quot;font-size: 12px;&quot;&gt;Get Data Guru/Siswa/Kehadiran/Mapel/Jadwal&lt;/font&gt;" style="edgeLabel;html=1;align=center;verticalAlign=middle;resizable=0;points=[];" vertex="1" connectable="0" parent="lkRLUyl65WBtxDftpdHH-27">
          <mxGeometry x="-0.1426" y="2" relative="1" as="geometry">
            <mxPoint x="22" as="offset" />
          </mxGeometry>
        </mxCell>
        <mxCell id="lkRLUyl65WBtxDftpdHH-29" style="edgeStyle=orthogonalEdgeStyle;rounded=0;orthogonalLoop=1;jettySize=auto;html=1;entryX=0.545;entryY=1.019;entryDx=0;entryDy=0;entryPerimeter=0;" edge="1" parent="1" source="lkRLUyl65WBtxDftpdHH-6" target="lkRLUyl65WBtxDftpdHH-1">
          <mxGeometry relative="1" as="geometry" />
        </mxCell>
        <mxCell id="lkRLUyl65WBtxDftpdHH-30" value="&lt;font style=&quot;font-size: 12px;&quot;&gt;Response Data Guru/Siswa/Kehadiran/Mapel/Jadwal&lt;/font&gt;" style="edgeLabel;html=1;align=center;verticalAlign=middle;resizable=0;points=[];" vertex="1" connectable="0" parent="lkRLUyl65WBtxDftpdHH-29">
          <mxGeometry x="-0.2996" y="2" relative="1" as="geometry">
            <mxPoint x="-27" y="-1" as="offset" />
          </mxGeometry>
        </mxCell>
        <mxCell id="lkRLUyl65WBtxDftpdHH-33" value="" style="strokeWidth=2;html=1;shape=mxgraph.flowchart.database;whiteSpace=wrap;" vertex="1" parent="1">
          <mxGeometry x="330" y="660" width="60" height="60" as="geometry" />
        </mxCell>
        <mxCell id="lkRLUyl65WBtxDftpdHH-52" value="&lt;font style=&quot;font-size: 8px;&quot;&gt;Response Data Kehadiran&lt;br&gt;&lt;/font&gt;" style="edgeLabel;html=1;align=center;verticalAlign=middle;resizable=0;points=[];rotation=-90;" vertex="1" connectable="0" parent="1">
          <mxGeometry x="94.00332123761575" y="410.0000000000001" as="geometry">
            <mxPoint x="-16" y="-3.999999999999999" as="offset" />
          </mxGeometry>
        </mxCell>
        <mxCell id="lkRLUyl65WBtxDftpdHH-57" style="edgeStyle=orthogonalEdgeStyle;rounded=0;orthogonalLoop=1;jettySize=auto;html=1;entryX=0.998;entryY=0.407;entryDx=0;entryDy=0;entryPerimeter=0;" edge="1" parent="1" source="lkRLUyl65WBtxDftpdHH-1" target="lkRLUyl65WBtxDftpdHH-45">
          <mxGeometry relative="1" as="geometry">
            <Array as="points">
              <mxPoint x="360" y="560" />
              <mxPoint x="360" y="470" />
            </Array>
          </mxGeometry>
        </mxCell>
        <mxCell id="lkRLUyl65WBtxDftpdHH-58" value="&lt;font style=&quot;font-size: 8px;&quot;&gt;Respons Status Kehadiran&lt;/font&gt;" style="edgeLabel;html=1;align=center;verticalAlign=middle;resizable=0;points=[];" vertex="1" connectable="0" parent="lkRLUyl65WBtxDftpdHH-57">
          <mxGeometry x="0.3597" relative="1" as="geometry">
            <mxPoint as="offset" />
          </mxGeometry>
        </mxCell>
        <mxCell id="lkRLUyl65WBtxDftpdHH-68" style="edgeStyle=orthogonalEdgeStyle;rounded=0;orthogonalLoop=1;jettySize=auto;html=1;entryX=0.052;entryY=0.075;entryDx=0;entryDy=0;entryPerimeter=0;" edge="1" parent="1" source="lkRLUyl65WBtxDftpdHH-1" target="lkRLUyl65WBtxDftpdHH-6">
          <mxGeometry relative="1" as="geometry">
            <Array as="points">
              <mxPoint x="520" y="706" />
            </Array>
          </mxGeometry>
        </mxCell>
        <mxCell id="lkRLUyl65WBtxDftpdHH-69" value="get All Data" style="edgeLabel;html=1;align=center;verticalAlign=middle;resizable=0;points=[];" vertex="1" connectable="0" parent="lkRLUyl65WBtxDftpdHH-68">
          <mxGeometry x="-0.062" relative="1" as="geometry">
            <mxPoint as="offset" />
          </mxGeometry>
        </mxCell>
      </root>
    </mxGraphModel>
  </diagram>
</mxfile>
